<svg width="390" height="175" viewBox="0 0 390 175" fill="none" xmlns="http://www.w3.org/2000/svg">
<g clip-path="url(#clip0_1_467)">
<path d="M2.41684 153.69C2.41819 151.922 3.123 150.226 4.37634 148.976C5.62969 147.726 7.32902 147.024 9.10084 147.024C10.8727 147.024 12.572 147.726 13.8253 148.976C15.0787 150.226 15.7835 151.922 15.7848 153.69" fill="#F2F2F2"/>
<path d="M9.10084 153.69C9.05294 153.69 9.00699 153.671 8.97312 153.637C8.93924 153.603 8.9202 153.558 8.9202 153.51V149.994C8.9202 149.946 8.93923 149.9 8.97311 149.867C9.00698 149.833 9.05293 149.814 9.10084 149.814C9.14876 149.814 9.1947 149.833 9.22858 149.867C9.26246 149.9 9.2815 149.946 9.2815 149.994V153.51C9.28149 153.558 9.26245 153.603 9.22857 153.637C9.1947 153.671 9.14875 153.69 9.10084 153.69Z" fill="#CCCCCC"/>
<path d="M9.10076 152.482C9.0576 152.482 9.01586 152.467 8.98316 152.438L6.8154 150.582C6.79716 150.566 6.78215 150.547 6.77123 150.526C6.7603 150.505 6.75369 150.482 6.75178 150.458C6.74986 150.434 6.75267 150.411 6.76005 150.388C6.76742 150.365 6.77923 150.344 6.79477 150.326C6.81031 150.308 6.82928 150.293 6.85059 150.283C6.8719 150.272 6.89512 150.266 6.91892 150.264C6.94271 150.262 6.96661 150.265 6.98923 150.273C7.01186 150.28 7.03275 150.292 7.05072 150.308L9.2185 152.165C9.24651 152.189 9.26649 152.221 9.27574 152.257C9.28499 152.292 9.28307 152.33 9.27024 152.364C9.25742 152.399 9.2343 152.429 9.20399 152.45C9.17369 152.471 9.13766 152.482 9.10074 152.482L9.10076 152.482Z" fill="#CCCCCC"/>
<path d="M23.0108 153.69C23.0121 151.922 23.7169 150.226 24.9703 148.976C26.2236 147.726 27.9229 147.024 29.6948 147.024C31.4666 147.024 33.1659 147.726 34.4193 148.976C35.6726 150.226 36.3774 151.922 36.3788 153.69" fill="#F2F2F2"/>
<path d="M29.6948 153.69C29.6469 153.69 29.6009 153.671 29.567 153.637C29.5332 153.603 29.5141 153.558 29.5141 153.51V149.994C29.5141 149.946 29.5332 149.9 29.567 149.867C29.6009 149.833 29.6469 149.814 29.6948 149.814C29.7427 149.814 29.7886 149.833 29.8225 149.867C29.8564 149.9 29.8754 149.946 29.8754 149.994V153.51C29.8754 153.558 29.8564 153.603 29.8225 153.637C29.7886 153.671 29.7427 153.69 29.6948 153.69Z" fill="#CCCCCC"/>
<path d="M29.6947 152.482C29.6515 152.482 29.6098 152.467 29.5771 152.438L27.4093 150.582C27.3911 150.566 27.376 150.547 27.3651 150.526C27.3541 150.505 27.3475 150.482 27.3456 150.458C27.3437 150.434 27.3465 150.411 27.3539 150.388C27.3612 150.365 27.373 150.344 27.3886 150.326C27.4041 150.308 27.4231 150.293 27.4444 150.283C27.4658 150.272 27.489 150.265 27.5128 150.264C27.5366 150.262 27.5605 150.265 27.5832 150.273C27.6058 150.28 27.6267 150.292 27.6447 150.308L29.8124 152.165C29.8405 152.189 29.8604 152.221 29.8697 152.257C29.8789 152.292 29.877 152.33 29.8642 152.364C29.8514 152.399 29.8282 152.429 29.7979 152.45C29.7676 152.471 29.7316 152.482 29.6947 152.482L29.6947 152.482Z" fill="#CCCCCC"/>
<path d="M296.591 26.1577C303.687 26.1577 309.441 20.416 309.441 13.3332C309.441 6.25041 303.687 0.508675 296.591 0.508675C289.494 0.508675 283.741 6.25041 283.741 13.3332C283.741 20.416 289.494 26.1577 296.591 26.1577Z" fill="#F2F2F2"/>
<path d="M33.3637 168.005C39.8153 168.005 45.0453 166.787 45.0453 165.284C45.0453 163.782 39.8153 162.564 33.3637 162.564C26.9121 162.564 21.682 163.782 21.682 165.284C21.682 166.787 26.9121 168.005 33.3637 168.005Z" fill="#F2F2F2"/>
<path d="M27.4005 53.6151C30.4642 44.0672 37.9451 36.6625 46.817 32.2584C57.3434 27.033 69.4393 26.4414 80.8687 28.4751C93.2069 30.6705 104.738 35.7316 115.9 41.2547C126.849 46.6721 137.62 52.3925 149.006 56.8694C171.738 65.7944 195.831 70.7751 220.244 71.5964C242.217 72.328 265.711 69.9252 284.526 57.599C301.765 46.305 312.735 27.673 318.448 8.25118C319.18 5.76474 319.83 3.25692 320.399 0.727723C320.565 -0.00285502 319.439 -0.314785 319.273 0.417791C314.664 20.6991 304.836 40.7439 288.045 53.6722C269.883 67.6549 246.047 70.8874 223.742 70.5175C199.062 70.0874 174.644 65.3846 151.576 56.6187C139.897 52.1813 128.876 46.4192 117.715 40.8563C106.799 35.4156 95.5758 30.3227 83.5721 27.8134C72.611 25.5221 60.8755 25.3825 50.3074 29.4598C41.6054 32.8171 33.6709 38.8014 29.0275 46.9876C27.8953 48.9938 26.9727 51.1108 26.2741 53.3052C26.0443 54.0214 27.1717 54.3281 27.4005 53.6151Z" fill="#F2F2F2"/>
<path d="M194.177 142.888C194.28 142.888 194.379 142.847 194.452 142.774C194.525 142.701 194.566 142.603 194.566 142.5C194.566 142.396 194.525 142.298 194.452 142.225C194.379 142.152 194.28 142.111 194.177 142.111H190.478V140.556H194.177C194.28 140.556 194.379 140.516 194.452 140.443C194.525 140.37 194.566 140.271 194.566 140.168C194.566 140.065 194.525 139.966 194.452 139.893C194.379 139.82 194.28 139.779 194.177 139.779H162.636C162.533 139.779 162.434 139.82 162.361 139.893C162.288 139.966 162.247 140.065 162.247 140.168C162.247 140.271 162.288 140.37 162.361 140.443C162.434 140.516 162.533 140.556 162.636 140.556H166.335V142.111H162.636C162.533 142.111 162.434 142.152 162.361 142.225C162.288 142.298 162.247 142.396 162.247 142.5C162.247 142.603 162.288 142.701 162.361 142.774C162.434 142.847 162.533 142.888 162.636 142.888H166.335V144.443H162.636C162.533 144.443 162.434 144.484 162.361 144.556C162.288 144.629 162.247 144.728 162.247 144.831C162.247 144.934 162.288 145.033 162.361 145.106C162.434 145.179 162.533 145.22 162.636 145.22H166.335V146.774H163.026C162.819 146.774 162.621 146.856 162.475 147.002C162.329 147.148 162.247 147.346 162.247 147.552C162.247 147.758 162.329 147.955 162.475 148.101C162.621 148.247 162.819 148.329 163.026 148.329H166.176C166.154 148.391 166.141 148.457 166.141 148.523V153.964C166.141 154.119 166.202 154.267 166.312 154.376C166.421 154.485 166.57 154.547 166.725 154.547C166.88 154.547 167.028 154.485 167.138 154.376C167.247 154.267 167.309 154.119 167.309 153.964V148.523C167.308 148.457 167.296 148.391 167.273 148.329H189.54C189.517 148.391 189.505 148.457 189.504 148.523V153.964C189.504 154.119 189.566 154.267 189.675 154.376C189.785 154.485 189.933 154.547 190.088 154.547C190.243 154.547 190.392 154.485 190.501 154.376C190.611 154.267 190.672 154.119 190.672 153.964V148.523C190.672 148.457 190.66 148.391 190.637 148.329H193.787C193.994 148.329 194.192 148.247 194.338 148.101C194.484 147.955 194.566 147.758 194.566 147.552C194.566 147.346 194.484 147.148 194.338 147.002C194.192 146.856 193.994 146.774 193.787 146.774H190.478V145.22H194.177C194.28 145.22 194.379 145.179 194.452 145.106C194.525 145.033 194.566 144.934 194.566 144.831C194.566 144.728 194.525 144.629 194.452 144.556C194.379 144.484 194.28 144.443 194.177 144.443H190.478V142.888H194.177ZM167.114 140.556H189.699V142.111H167.114V140.556ZM189.699 146.774H167.114V145.22H189.699V146.774ZM189.699 144.443H167.114V142.888H189.699V144.443Z" fill="#3F3D56"/>
<path d="M75.4177 126.577C75.4177 119.714 69.839 103.427 62.9573 103.427C56.0756 103.427 50.4968 119.714 50.4968 126.577C50.4968 129.875 51.8096 133.038 54.1464 135.371C56.4832 137.703 59.6526 139.013 62.9573 139.013C66.262 139.013 69.4314 137.703 71.7682 135.371C74.1049 133.038 75.4177 129.875 75.4177 126.577H75.4177Z" fill="#E6E6E6"/>
<path d="M72.3026 126.577C72.3026 119.714 66.7239 103.427 59.8422 103.427C52.9605 103.427 47.3817 119.714 47.3817 126.577C47.3817 129.875 48.6945 133.038 51.0313 135.371C53.3681 137.703 56.5375 139.013 59.8422 139.013C63.1469 139.013 66.3163 137.703 68.6531 135.371C70.9898 133.038 72.3026 129.875 72.3026 126.577H72.3026Z" fill="#F2F2F2"/>
<path d="M60.2316 154.383C60.1283 154.383 60.0292 154.342 59.9562 154.269C59.8832 154.196 59.8422 154.098 59.8422 153.995V119.353C59.8422 119.249 59.8832 119.151 59.9562 119.078C60.0292 119.005 60.1283 118.964 60.2316 118.964C60.3348 118.964 60.4339 119.005 60.5069 119.078C60.5799 119.151 60.6209 119.249 60.6209 119.353V153.995C60.6209 154.098 60.5799 154.196 60.5069 154.269C60.4339 154.342 60.3348 154.383 60.2316 154.383Z" fill="#CCCCCC"/>
<path d="M60.2315 125.032C60.1545 125.032 60.0793 125.009 60.0152 124.966C59.9512 124.923 59.9013 124.863 59.8719 124.792C59.8424 124.721 59.8347 124.643 59.8497 124.567C59.8647 124.492 59.9018 124.423 59.9562 124.368L65.0485 119.286C65.1215 119.213 65.2206 119.172 65.3238 119.172C65.4271 119.172 65.5261 119.213 65.5991 119.286C65.6722 119.359 65.7132 119.457 65.7132 119.561C65.7132 119.664 65.6722 119.762 65.5991 119.835L60.5069 124.918C60.4707 124.954 60.4278 124.983 60.3806 125.002C60.3333 125.022 60.2827 125.032 60.2315 125.032Z" fill="#CCCCCC"/>
<path d="M203.527 154.383C203.423 154.383 203.324 154.342 203.251 154.269C203.178 154.196 203.137 154.098 203.137 153.995V119.353C203.137 119.249 203.178 119.151 203.251 119.078C203.324 119.005 203.423 118.964 203.527 118.964C203.63 118.964 203.729 119.005 203.802 119.078C203.875 119.151 203.916 119.249 203.916 119.353V153.995C203.916 154.098 203.875 154.196 203.802 154.269C203.729 154.342 203.63 154.383 203.527 154.383Z" fill="#3F3D56"/>
<path d="M245.191 126.577C245.191 119.714 239.613 103.427 232.731 103.427C225.849 103.427 220.27 119.714 220.27 126.577C220.27 129.875 221.583 133.038 223.92 135.371C226.257 137.703 229.426 139.013 232.731 139.013C236.036 139.013 239.205 137.703 241.542 135.371C243.879 133.038 245.191 129.875 245.191 126.577H245.191Z" fill="#E6E6E6"/>
<path d="M242.076 126.577C242.076 119.714 236.497 103.427 229.616 103.427C222.734 103.427 217.155 119.714 217.155 126.577C217.155 129.875 218.468 133.038 220.805 135.371C223.142 137.703 226.311 139.013 229.616 139.013C232.921 139.013 236.09 137.703 238.427 135.371C240.763 133.038 242.076 129.875 242.076 126.577H242.076Z" fill="#F2F2F2"/>
<path d="M230.005 154.383C229.902 154.383 229.803 154.342 229.73 154.269C229.657 154.196 229.616 154.098 229.616 153.995V119.353C229.616 119.249 229.657 119.151 229.73 119.078C229.803 119.005 229.902 118.964 230.005 118.964C230.108 118.964 230.207 119.005 230.28 119.078C230.354 119.151 230.395 119.249 230.395 119.353V153.995C230.395 154.098 230.354 154.196 230.28 154.269C230.207 154.342 230.108 154.383 230.005 154.383Z" fill="#CCCCCC"/>
<path d="M230.005 125.032C229.928 125.032 229.853 125.009 229.789 124.966C229.725 124.923 229.675 124.863 229.645 124.792C229.616 124.721 229.608 124.643 229.623 124.567C229.638 124.492 229.675 124.423 229.73 124.368L234.822 119.286C234.895 119.213 234.994 119.172 235.097 119.172C235.201 119.172 235.3 119.213 235.373 119.286C235.446 119.359 235.487 119.457 235.487 119.561C235.487 119.664 235.446 119.762 235.373 119.835L230.28 124.918C230.244 124.954 230.201 124.983 230.154 125.002C230.107 125.022 230.056 125.032 230.005 125.032Z" fill="#CCCCCC"/>
<path d="M101.507 20.1341H95.2765C94.812 20.1336 94.3666 19.9492 94.0381 19.6213C93.7096 19.2935 93.5248 18.8489 93.5243 18.3853V4.00627C93.5248 3.54262 93.7096 3.0981 94.0381 2.77025C94.3666 2.4424 94.812 2.25798 95.2765 2.25747H101.507C101.971 2.25798 102.417 2.4424 102.745 2.77025C103.074 3.0981 103.259 3.54262 103.259 4.00627V18.3853C103.259 18.8489 103.074 19.2935 102.745 19.6213C102.417 19.9492 101.971 20.1336 101.507 20.1341Z" fill="#E6E6E6"/>
<path d="M126.038 154.209H94.1084C93.2309 154.208 92.3896 153.859 91.7691 153.24C91.1486 152.621 90.7996 151.781 90.7986 150.905V22.2715C90.7996 21.3957 91.1486 20.5561 91.7691 19.9368C92.3896 19.3176 93.2309 18.9692 94.1084 18.9682H126.038C126.916 18.9692 127.757 19.3175 128.378 19.9368C128.998 20.5561 129.347 21.3957 129.348 22.2715V150.905C129.347 151.781 128.998 152.621 128.378 153.24C127.757 153.859 126.916 154.208 126.038 154.209Z" fill="#E6E6E6"/>
<path d="M106.958 154.209H75.0283C74.1508 154.208 73.3095 153.859 72.689 153.24C72.0685 152.621 71.7195 151.781 71.7185 150.905V22.2715C71.7195 21.3957 72.0685 20.5561 72.689 19.9368C73.3095 19.3176 74.1508 18.9692 75.0283 18.9682H106.958C107.836 18.9692 108.677 19.3176 109.297 19.9368C109.918 20.5561 110.267 21.3957 110.268 22.2715V150.905C110.267 151.781 109.918 152.621 109.297 153.24C108.677 153.859 107.836 154.208 106.958 154.209Z" fill="#F2F2F2"/>
<path d="M95.6659 20.1341H89.4357C88.9712 20.1336 88.5258 19.9492 88.1973 19.6213C87.8688 19.2935 87.684 18.8489 87.6835 18.3853V4.00627C87.684 3.54262 87.8688 3.0981 88.1973 2.77025C88.5258 2.4424 88.9712 2.25798 89.4357 2.25747H95.6659C96.1305 2.25798 96.5759 2.4424 96.9044 2.77025C97.2329 3.0981 97.4177 3.54262 97.4182 4.00627V18.3853C97.4177 18.8489 97.2329 19.2935 96.9044 19.6213C96.5759 19.9492 96.1305 20.1336 95.6659 20.1341Z" fill="#F2F2F2"/>
<path d="M87.4888 48.1149H80.0904C79.8323 48.1146 79.5849 48.0121 79.4024 47.83C79.2199 47.6479 79.1172 47.4009 79.1169 47.1433V35.8733C79.1172 35.6157 79.2199 35.3688 79.4024 35.1866C79.5849 35.0045 79.8323 34.902 80.0904 34.9017H87.4888C87.7469 34.902 87.9943 35.0045 88.1768 35.1866C88.3593 35.3688 88.4619 35.6157 88.4622 35.8733V47.1433C88.4619 47.4009 88.3593 47.6479 88.1768 47.83C87.9943 48.0121 87.7469 48.1146 87.4888 48.1149Z" fill="white"/>
<path d="M101.896 48.1149H94.4978C94.2397 48.1146 93.9922 48.0121 93.8097 47.83C93.6272 47.6479 93.5246 47.4009 93.5243 47.1433V35.8733C93.5246 35.6157 93.6272 35.3688 93.8097 35.1866C93.9922 35.0045 94.2397 34.902 94.4978 34.9017H101.896C102.154 34.902 102.402 35.0045 102.584 35.1866C102.767 35.3688 102.869 35.6157 102.87 35.8733V47.1433C102.869 47.4009 102.767 47.6479 102.584 47.83C102.402 48.0121 102.154 48.1146 101.896 48.1149Z" fill="white"/>
<path d="M87.4888 68.7119H80.0904C79.8323 68.7116 79.5849 68.6091 79.4024 68.427C79.2199 68.2448 79.1172 67.9979 79.1169 67.7403V56.4703C79.1172 56.2127 79.2199 55.9657 79.4024 55.7836C79.5849 55.6014 79.8323 55.499 80.0904 55.4987H87.4888C87.7469 55.499 87.9943 55.6014 88.1768 55.7836C88.3593 55.9657 88.4619 56.2127 88.4622 56.4703V67.7403C88.4619 67.9979 88.3593 68.2448 88.1768 68.427C87.9943 68.6091 87.7469 68.7116 87.4888 68.7119Z" fill="white"/>
<path d="M101.896 68.7119H94.4978C94.2397 68.7116 93.9922 68.6091 93.8097 68.427C93.6272 68.2448 93.5246 67.9979 93.5243 67.7403V56.4703C93.5246 56.2127 93.6272 55.9657 93.8097 55.7836C93.9922 55.6014 94.2397 55.499 94.4978 55.4987H101.896C102.154 55.499 102.402 55.6014 102.584 55.7836C102.767 55.9657 102.869 56.2127 102.87 56.4703V67.7403C102.869 67.9979 102.767 68.2448 102.584 68.427C102.402 68.6091 102.154 68.7116 101.896 68.7119Z" fill="white"/>
<path d="M87.4888 89.3088H80.0904C79.8323 89.3085 79.5849 89.2061 79.4024 89.0239C79.2199 88.8418 79.1172 88.5949 79.1169 88.3373V77.0672C79.1172 76.8096 79.2199 76.5627 79.4024 76.3806C79.5849 76.1984 79.8323 76.096 80.0904 76.0957H87.4888C87.7469 76.096 87.9943 76.1984 88.1768 76.3806C88.3593 76.5627 88.4619 76.8096 88.4622 77.0672V88.3373C88.4619 88.5949 88.3593 88.8418 88.1768 89.0239C87.9943 89.2061 87.7469 89.3085 87.4888 89.3088Z" fill="white"/>
<path d="M101.896 89.3088H94.4978C94.2397 89.3085 93.9922 89.2061 93.8097 89.0239C93.6272 88.8418 93.5246 88.5949 93.5243 88.3373V77.0672C93.5246 76.8096 93.6272 76.5627 93.8097 76.3806C93.9922 76.1984 94.2397 76.096 94.4978 76.0957H101.896C102.154 76.096 102.402 76.1984 102.584 76.3806C102.767 76.5627 102.869 76.8096 102.87 77.0672V88.3373C102.869 88.5949 102.767 88.8418 102.584 89.0239C102.402 89.2061 102.154 89.3085 101.896 89.3088Z" fill="white"/>
<path d="M87.4888 109.906H80.0904C79.8323 109.905 79.5849 109.803 79.4024 109.621C79.2199 109.439 79.1172 109.192 79.1169 108.934V97.6642C79.1172 97.4066 79.2199 97.1597 79.4024 96.9775C79.5849 96.7954 79.8323 96.693 80.0904 96.6927H87.4888C87.7469 96.693 87.9943 96.7954 88.1768 96.9775C88.3593 97.1597 88.4619 97.4066 88.4622 97.6642V108.934C88.4619 109.192 88.3593 109.439 88.1768 109.621C87.9943 109.803 87.7469 109.905 87.4888 109.906Z" fill="white"/>
<path d="M101.896 109.906H94.4978C94.2397 109.905 93.9922 109.803 93.8097 109.621C93.6272 109.439 93.5246 109.192 93.5243 108.934V97.6642C93.5246 97.4066 93.6272 97.1597 93.8097 96.9775C93.9922 96.7954 94.2397 96.693 94.4978 96.6927H101.896C102.154 96.693 102.402 96.7954 102.584 96.9775C102.767 97.1597 102.869 97.4066 102.87 97.6642V108.934C102.869 109.192 102.767 109.439 102.584 109.621C102.402 109.803 102.154 109.905 101.896 109.906Z" fill="white"/>
<path d="M87.4888 130.503H80.0904C79.8323 130.502 79.5849 130.4 79.4024 130.218C79.2199 130.036 79.1172 129.789 79.1169 129.531V118.261C79.1172 118.004 79.2199 117.757 79.4024 117.575C79.5849 117.392 79.8323 117.29 80.0904 117.29H87.4888C87.7469 117.29 87.9943 117.392 88.1768 117.575C88.3593 117.757 88.4619 118.004 88.4622 118.261V129.531C88.4619 129.789 88.3593 130.036 88.1768 130.218C87.9943 130.4 87.7469 130.502 87.4888 130.503Z" fill="white"/>
<path d="M101.896 130.503H94.4978C94.2397 130.502 93.9922 130.4 93.8097 130.218C93.6272 130.036 93.5246 129.789 93.5243 129.531V118.261C93.5246 118.004 93.6272 117.757 93.8097 117.575C93.9922 117.392 94.2397 117.29 94.4978 117.29H101.896C102.154 117.29 102.402 117.392 102.584 117.575C102.767 117.757 102.869 118.004 102.87 118.261V129.531C102.869 129.789 102.767 130.036 102.584 130.218C102.402 130.4 102.154 130.502 101.896 130.503Z" fill="white"/>
<path d="M262.324 88.143H256.094C255.63 88.1424 255.184 87.958 254.856 87.6302C254.527 87.3023 254.343 86.8578 254.342 86.3942V78.2331C254.343 77.7694 254.527 77.3249 254.856 76.9971C255.184 76.6692 255.63 76.4848 256.094 76.4843H262.324C262.789 76.4848 263.234 76.6692 263.563 76.9971C263.891 77.3249 264.076 77.7694 264.077 78.2331V86.3942C264.076 86.8578 263.891 87.3023 263.563 87.6302C263.234 87.958 262.789 88.1424 262.324 88.143Z" fill="#E6E6E6"/>
<path d="M314.892 154.597H282.962C282.085 154.596 281.243 154.248 280.623 153.629C280.002 153.009 279.653 152.17 279.652 151.294V89.5031C279.653 88.6274 280.002 87.7877 280.623 87.1685C281.243 86.5492 282.085 86.2008 282.962 86.1999H314.892C315.769 86.2008 316.611 86.5492 317.231 87.1685C317.852 87.7877 318.201 88.6274 318.202 89.5031V151.294C318.201 152.17 317.852 153.009 317.231 153.629C316.611 154.248 315.769 154.596 314.892 154.597Z" fill="#E6E6E6"/>
<path d="M295.812 154.597H240.519C239.641 154.596 238.8 154.248 238.179 153.629C237.559 153.009 237.21 152.17 237.209 151.294V89.5031C237.21 88.6274 237.559 87.7877 238.179 87.1685C238.8 86.5492 239.641 86.2008 240.519 86.1999H295.812C296.689 86.2008 297.531 86.5492 298.151 87.1685C298.772 87.7877 299.121 88.6274 299.122 89.5031V151.294C299.121 152.17 298.772 153.009 298.151 153.629C297.531 154.248 296.689 154.596 295.812 154.597Z" fill="#F2F2F2"/>
<path d="M256.484 88.143H250.253C249.789 88.1424 249.343 87.958 249.015 87.6302C248.686 87.3023 248.502 86.8578 248.501 86.3942V78.2331C248.502 77.7694 248.686 77.3249 249.015 76.9971C249.343 76.6692 249.789 76.4848 250.253 76.4843H256.484C256.948 76.4848 257.394 76.6692 257.722 76.9971C258.051 77.3249 258.235 77.7694 258.236 78.2331V86.3942C258.235 86.8578 258.051 87.3023 257.722 87.6302C257.394 87.958 256.948 88.1424 256.484 88.143Z" fill="#F2F2F2"/>
<path d="M264.661 116.707H257.262C257.004 116.706 256.757 116.604 256.574 116.422C256.392 116.24 256.289 115.993 256.289 115.735V104.465C256.289 104.208 256.392 103.961 256.574 103.778C256.757 103.596 257.004 103.494 257.262 103.494H264.661C264.919 103.494 265.166 103.596 265.349 103.778C265.531 103.961 265.634 104.208 265.634 104.465V115.735C265.634 115.993 265.531 116.24 265.349 116.422C265.166 116.604 264.919 116.706 264.661 116.707Z" fill="white"/>
<path d="M279.068 116.707H271.67C271.412 116.706 271.164 116.604 270.982 116.422C270.799 116.24 270.697 115.993 270.696 115.735V104.465C270.697 104.208 270.799 103.961 270.982 103.778C271.164 103.596 271.412 103.494 271.67 103.494H279.068C279.326 103.494 279.574 103.596 279.756 103.778C279.939 103.961 280.041 104.208 280.042 104.465V115.735C280.041 115.993 279.939 116.24 279.756 116.422C279.574 116.604 279.326 116.706 279.068 116.707Z" fill="white"/>
<path d="M264.661 137.304H257.262C257.004 137.303 256.757 137.201 256.574 137.019C256.392 136.837 256.289 136.59 256.289 136.332V125.062C256.289 124.804 256.392 124.558 256.574 124.375C256.757 124.193 257.004 124.091 257.262 124.09H264.661C264.919 124.091 265.166 124.193 265.349 124.375C265.531 124.558 265.634 124.804 265.634 125.062V136.332C265.634 136.59 265.531 136.837 265.349 137.019C265.166 137.201 264.919 137.303 264.661 137.304Z" fill="white"/>
<path d="M279.068 137.304H271.67C271.412 137.303 271.164 137.201 270.982 137.019C270.799 136.837 270.697 136.59 270.696 136.332V125.062C270.697 124.804 270.799 124.558 270.982 124.375C271.164 124.193 271.412 124.091 271.67 124.09H279.068C279.326 124.091 279.574 124.193 279.756 124.375C279.939 124.558 280.041 124.804 280.042 125.062V136.332C280.041 136.59 279.939 136.837 279.756 137.019C279.574 137.201 279.326 137.303 279.068 137.304Z" fill="white"/>
<path d="M398.611 154.792H-8.61061C-8.71388 154.792 -8.81293 154.751 -8.88595 154.678C-8.95898 154.605 -9 154.506 -9 154.403C-9 154.3 -8.95898 154.201 -8.88595 154.128C-8.81293 154.055 -8.71388 154.014 -8.61061 154.014H398.611C398.714 154.014 398.813 154.055 398.886 154.128C398.959 154.201 399 154.3 399 154.403C399 154.506 398.959 154.605 398.886 154.678C398.813 154.751 398.714 154.792 398.611 154.792Z" fill="#E6E6E6"/>
<path d="M132.269 168.393H96.0553C95.9521 168.393 95.853 168.352 95.78 168.28C95.707 168.207 95.666 168.108 95.666 168.005C95.666 167.902 95.707 167.803 95.78 167.73C95.853 167.657 95.9521 167.616 96.0553 167.616H132.269C132.372 167.616 132.471 167.657 132.544 167.73C132.617 167.803 132.658 167.902 132.658 168.005C132.658 168.108 132.617 168.207 132.544 168.28C132.471 168.352 132.372 168.393 132.269 168.393Z" fill="#E6E6E6"/>
<path d="M222.217 168.393H186.004C185.901 168.393 185.802 168.352 185.729 168.28C185.656 168.207 185.615 168.108 185.615 168.005C185.615 167.902 185.656 167.803 185.729 167.73C185.802 167.657 185.901 167.616 186.004 167.616H222.217C222.321 167.616 222.42 167.657 222.493 167.73C222.566 167.803 222.607 167.902 222.607 168.005C222.607 168.108 222.566 168.207 222.493 168.28C222.42 168.352 222.321 168.393 222.217 168.393Z" fill="#E6E6E6"/>
<path d="M312.166 168.393H275.953C275.85 168.393 275.751 168.352 275.678 168.28C275.605 168.207 275.564 168.108 275.564 168.005C275.564 167.902 275.605 167.803 275.678 167.73C275.751 167.657 275.85 167.616 275.953 167.616H312.166C312.27 167.616 312.369 167.657 312.442 167.73C312.515 167.803 312.556 167.902 312.556 168.005C312.556 168.108 312.515 168.207 312.442 168.28C312.369 168.352 312.27 168.393 312.166 168.393Z" fill="#E6E6E6"/>
<path d="M152.906 126.577C152.906 119.714 147.327 103.427 140.446 103.427C133.564 103.427 127.985 119.714 127.985 126.577C127.985 129.875 129.298 133.038 131.635 135.371C133.972 137.703 137.141 139.013 140.446 139.013C143.75 139.013 146.92 137.703 149.257 135.371C151.593 133.038 152.906 129.875 152.906 126.577H152.906Z" fill="#E6E6E6"/>
<path d="M149.791 126.577C149.791 119.714 144.212 103.427 137.331 103.427C130.449 103.427 124.87 119.714 124.87 126.577C124.87 129.875 126.183 133.038 128.52 135.371C130.856 137.703 134.026 139.013 137.331 139.013C140.635 139.013 143.805 137.703 146.141 135.371C148.478 133.038 149.791 129.875 149.791 126.577Z" fill="#F2F2F2"/>
<path d="M137.72 154.383C137.617 154.383 137.518 154.342 137.445 154.269C137.372 154.196 137.331 154.098 137.331 153.995V119.353C137.331 119.249 137.372 119.151 137.445 119.078C137.518 119.005 137.617 118.964 137.72 118.964C137.823 118.964 137.922 119.005 137.995 119.078C138.068 119.151 138.109 119.249 138.109 119.353V153.995C138.109 154.098 138.068 154.196 137.995 154.269C137.922 154.342 137.823 154.383 137.72 154.383Z" fill="#CCCCCC"/>
<path d="M137.72 125.032C137.643 125.032 137.568 125.009 137.504 124.966C137.44 124.923 137.39 124.863 137.36 124.792C137.331 124.721 137.323 124.643 137.338 124.567C137.353 124.492 137.39 124.423 137.445 124.368L142.537 119.286C142.61 119.213 142.709 119.172 142.812 119.172C142.915 119.172 143.015 119.213 143.088 119.286C143.161 119.359 143.202 119.457 143.202 119.561C143.202 119.664 143.161 119.762 143.088 119.835L137.995 124.918C137.959 124.954 137.916 124.983 137.869 125.002C137.822 125.022 137.771 125.032 137.72 125.032Z" fill="#CCCCCC"/>
<path d="M351.884 126.577C351.884 119.714 346.305 103.427 339.423 103.427C332.542 103.427 326.963 119.714 326.963 126.577C326.963 129.875 328.276 133.038 330.613 135.371C332.949 137.703 336.119 139.013 339.423 139.013C342.728 139.013 345.898 137.703 348.234 135.371C350.571 133.038 351.884 129.875 351.884 126.577H351.884Z" fill="#E6E6E6"/>
<path d="M348.769 126.577C348.769 119.714 343.19 103.427 336.308 103.427C329.427 103.427 323.848 119.714 323.848 126.577C323.848 129.875 325.161 133.038 327.497 135.371C329.834 137.703 333.004 139.013 336.308 139.013C339.613 139.013 342.782 137.703 345.119 135.371C347.456 133.038 348.769 129.875 348.769 126.577H348.769Z" fill="#F2F2F2"/>
<path d="M336.698 154.383C336.594 154.383 336.495 154.342 336.422 154.269C336.349 154.196 336.308 154.098 336.308 153.995V119.353C336.308 119.249 336.349 119.151 336.422 119.078C336.495 119.005 336.594 118.964 336.698 118.964C336.801 118.964 336.9 119.005 336.973 119.078C337.046 119.151 337.087 119.249 337.087 119.353V153.995C337.087 154.098 337.046 154.196 336.973 154.269C336.9 154.342 336.801 154.383 336.698 154.383Z" fill="#CCCCCC"/>
<path d="M336.698 125.032C336.621 125.032 336.545 125.009 336.481 124.966C336.417 124.923 336.368 124.863 336.338 124.792C336.309 124.721 336.301 124.643 336.316 124.567C336.331 124.492 336.368 124.423 336.422 124.368L341.515 119.286C341.588 119.213 341.687 119.172 341.79 119.172C341.893 119.172 341.992 119.213 342.065 119.286C342.138 119.359 342.179 119.457 342.179 119.561C342.179 119.664 342.138 119.762 342.065 119.835L336.973 124.918C336.937 124.954 336.894 124.983 336.847 125.002C336.8 125.022 336.749 125.032 336.698 125.032Z" fill="#CCCCCC"/>
<path d="M207.81 130.891H199.243C198.985 130.891 198.738 130.789 198.555 130.607C198.373 130.424 198.27 130.177 198.27 129.92V121.37C198.27 121.113 198.373 120.866 198.555 120.683C198.738 120.501 198.985 120.399 199.243 120.399H207.81C208.068 120.399 208.315 120.501 208.498 120.683C208.68 120.866 208.783 121.113 208.783 121.37V129.92C208.783 130.177 208.68 130.424 208.498 130.607C208.315 130.789 208.068 130.891 207.81 130.891Z" fill="#3F3D56"/>
<path d="M290.97 135.055C291.064 135.079 291.151 135.124 291.225 135.186C291.3 135.248 291.36 135.325 291.401 135.412C291.442 135.5 291.464 135.595 291.464 135.691C291.464 135.788 291.443 135.883 291.403 135.971L293.096 137.601L291.903 137.868L290.478 136.279C290.335 136.201 290.226 136.074 290.171 135.921C290.116 135.768 290.119 135.6 290.179 135.449C290.24 135.298 290.354 135.175 290.5 135.102C290.645 135.029 290.813 135.013 290.97 135.055H290.97Z" fill="#FFB8B8"/>
<path d="M293.351 139.342L291.262 137.386C291.234 137.359 291.21 137.327 291.194 137.29C291.178 137.254 291.17 137.216 291.169 137.176C291.168 137.137 291.175 137.097 291.19 137.061C291.205 137.024 291.226 136.991 291.254 136.963L291.681 136.532C291.731 136.481 291.799 136.45 291.871 136.445C291.943 136.44 292.014 136.461 292.071 136.504L293.822 137.839L294.914 135.196C294.957 135.092 295.021 134.998 295.102 134.919C295.183 134.84 295.279 134.779 295.385 134.739C295.491 134.699 295.604 134.682 295.716 134.687C295.829 134.692 295.94 134.72 296.041 134.77C296.201 134.847 296.332 134.974 296.414 135.132C296.495 135.29 296.523 135.469 296.494 135.644C296.296 136.847 295.095 138.436 294.397 139.276C294.302 139.391 294.173 139.473 294.029 139.512C293.885 139.55 293.733 139.543 293.593 139.492C293.503 139.458 293.421 139.407 293.351 139.342Z" fill="#6C63FF"/>
<path d="M292.179 137.445L290.641 135.219C290.622 135.19 290.614 135.154 290.62 135.12C290.627 135.086 290.646 135.056 290.675 135.036L290.737 134.993C290.751 134.984 290.767 134.977 290.784 134.973C290.801 134.969 290.818 134.969 290.835 134.972C290.852 134.975 290.868 134.982 290.883 134.991C290.897 135.001 290.91 135.013 290.92 135.027L292.458 137.253C292.467 137.267 292.474 137.283 292.478 137.3C292.481 137.317 292.482 137.334 292.479 137.351C292.475 137.368 292.469 137.384 292.46 137.399C292.45 137.413 292.438 137.426 292.424 137.436L292.362 137.478C292.333 137.498 292.298 137.505 292.264 137.499C292.229 137.493 292.199 137.473 292.179 137.445Z" fill="white"/>
<path d="M291.749 137.461L290.473 135.614C290.418 135.535 290.398 135.437 290.415 135.343C290.432 135.249 290.487 135.166 290.565 135.111L290.695 135.022L292.383 137.464L292.253 137.553C292.174 137.608 292.076 137.629 291.982 137.611C291.887 137.594 291.804 137.54 291.749 137.461Z" fill="#3F3D56"/>
<path d="M291.904 153.406L291.102 153.314L291.208 150.199L292.26 150.321L291.904 153.406Z" fill="#FFB8B8"/>
<path d="M292.018 154.205L289.433 153.908L289.437 153.875C289.452 153.743 289.494 153.616 289.558 153.5C289.623 153.384 289.71 153.282 289.814 153.199C289.918 153.117 290.038 153.055 290.166 153.019C290.293 152.983 290.427 152.972 290.559 152.987H290.559L292.138 153.169L292.018 154.205Z" fill="#2F2E41"/>
<path d="M301.225 152.815L300.454 153.053L299.169 150.198L300.307 149.847L301.225 152.815Z" fill="#FFB8B8"/>
<path d="M301.653 153.5L299.167 154.267L299.157 154.235C299.118 154.108 299.104 153.975 299.116 153.843C299.129 153.711 299.167 153.582 299.229 153.465C299.291 153.348 299.376 153.244 299.478 153.159C299.581 153.074 299.699 153.01 299.826 152.971H299.826L301.344 152.503L301.653 153.5Z" fill="#2F2E41"/>
<path d="M291.008 152.688C290.927 152.663 290.859 152.607 290.818 152.533C290.777 152.458 290.766 152.371 290.789 152.289L291.272 146.737C291.295 146.484 291.374 146.239 291.506 146.021L294.431 141.176L297.048 141.646L297.065 141.653C298.337 142.43 299.467 146.201 300.559 149.847C300.729 150.414 300.904 151.001 301.076 151.561C301.108 151.641 301.107 151.73 301.074 151.81C301.041 151.889 300.978 151.953 300.898 151.986L300.106 152.319C300.031 152.351 299.946 152.354 299.869 152.327C299.792 152.3 299.728 152.246 299.689 152.174L295.615 144.73C295.61 144.72 295.602 144.712 295.594 144.706C295.585 144.7 295.575 144.697 295.564 144.696C295.554 144.694 295.543 144.696 295.533 144.699C295.523 144.703 295.514 144.709 295.508 144.717L293.143 147.388L292.274 152.477L292.271 152.488C292.239 152.561 292.182 152.62 292.111 152.654C292.039 152.689 291.958 152.696 291.881 152.675L291.029 152.691L291.024 152.691L291.008 152.688Z" fill="#2F2E41"/>
<path d="M294.289 141.707L294.272 141.702L294.267 141.686C294.255 141.645 293.059 137.604 294.137 135.029L294.138 135.026C294.17 134.965 294.922 133.523 295.796 133.378L295.819 133.375L296.103 133.905C296.192 133.994 297.729 135.587 297.032 138.325C297.094 138.55 297.943 141.633 297.482 142.093C297.313 142.209 297.109 142.261 296.906 142.238C296.016 142.162 295.138 141.984 294.289 141.707Z" fill="#8BC83F"/>
<path d="M295.615 132.873C296.742 132.873 297.656 131.962 297.656 130.837C297.656 129.712 296.742 128.8 295.615 128.8C294.488 128.8 293.575 129.712 293.575 130.837C293.575 131.962 294.488 132.873 295.615 132.873Z" fill="#2F2E41"/>
<path d="M294.805 132.864C295.698 132.864 296.421 132.141 296.421 131.25C296.421 130.359 295.698 129.637 294.805 129.637C293.912 129.637 293.188 130.359 293.188 131.25C293.188 132.141 293.912 132.864 294.805 132.864Z" fill="#FFB8B8"/>
<path d="M295.845 132.817C295.698 132.87 295.517 132.916 295.401 132.807C295.352 132.745 295.324 132.67 295.319 132.591C295.315 132.512 295.334 132.434 295.375 132.366C295.459 132.233 295.526 132.091 295.577 131.942C295.592 131.83 295.578 131.716 295.536 131.612C295.494 131.507 295.425 131.415 295.337 131.344C295.162 131.211 294.963 131.111 294.751 131.05L293.62 130.649C293.325 130.58 293.064 130.411 292.881 130.171C292.786 129.971 292.77 129.744 292.835 129.533C292.901 129.322 293.043 129.143 293.233 129.031C293.426 128.934 293.637 128.882 293.852 128.878C294.067 128.873 294.281 128.917 294.477 129.007C294.693 129.107 294.914 129.195 295.14 129.271C295.593 129.39 296.108 129.283 296.506 129.538C296.674 129.666 296.808 129.833 296.894 130.025C296.981 130.217 297.018 130.427 297.002 130.637C296.968 131.059 296.855 131.471 296.669 131.852C296.583 132.087 296.458 132.305 296.3 132.499C296.222 132.594 296.123 132.669 296.011 132.717C295.898 132.765 295.776 132.786 295.654 132.777L295.845 132.817Z" fill="#2F2E41"/>
<path d="M297.327 131.165C298.054 131.165 298.643 130.577 298.643 129.852C298.643 129.126 298.054 128.538 297.327 128.538C296.6 128.538 296.01 129.126 296.01 129.852C296.01 130.577 296.6 131.165 297.327 131.165Z" fill="#2F2E41"/>
<path d="M295.155 131.757C295.155 131.733 295.161 131.709 295.173 131.689C295.186 131.668 295.203 131.652 295.224 131.641C295.245 131.629 295.269 131.624 295.293 131.625C295.317 131.626 295.34 131.634 295.36 131.647C295.38 131.661 295.395 131.679 295.406 131.701C295.416 131.722 295.42 131.746 295.417 131.77C295.415 131.794 295.406 131.816 295.391 131.835C295.377 131.855 295.358 131.869 295.336 131.878V132.167C295.336 132.174 295.334 132.18 295.332 132.186C295.33 132.192 295.326 132.198 295.321 132.202C295.317 132.207 295.311 132.211 295.305 132.213C295.299 132.216 295.293 132.217 295.286 132.217C295.28 132.217 295.273 132.216 295.267 132.213C295.261 132.211 295.256 132.207 295.251 132.202C295.247 132.198 295.243 132.192 295.241 132.186C295.238 132.18 295.237 132.174 295.237 132.167V131.878C295.213 131.868 295.192 131.852 295.177 131.83C295.163 131.808 295.155 131.783 295.155 131.757Z" fill="white"/>
<path d="M291.05 136.434C291.146 136.424 291.244 136.436 291.335 136.468C291.426 136.5 291.509 136.552 291.579 136.619C291.648 136.687 291.701 136.768 291.735 136.859C291.769 136.949 291.783 137.046 291.776 137.142L293.932 138.081L292.907 138.746L291.017 137.753C290.855 137.729 290.708 137.648 290.603 137.524C290.498 137.399 290.442 137.241 290.447 137.078C290.451 136.916 290.514 136.76 290.626 136.642C290.737 136.523 290.888 136.449 291.05 136.434Z" fill="#FFB8B8"/>
<path d="M294.779 139.624L292.138 138.517C292.102 138.502 292.069 138.48 292.041 138.451C292.013 138.423 291.992 138.39 291.977 138.353C291.963 138.316 291.956 138.277 291.957 138.238C291.958 138.198 291.967 138.159 291.983 138.123L292.232 137.571C292.262 137.505 292.314 137.453 292.38 137.423C292.445 137.393 292.52 137.389 292.589 137.41L294.695 138.052L294.796 135.195C294.8 135.082 294.827 134.971 294.875 134.869C294.924 134.767 294.993 134.677 295.078 134.602C295.163 134.528 295.263 134.472 295.37 134.438C295.478 134.404 295.592 134.392 295.704 134.403C295.881 134.42 296.048 134.493 296.179 134.613C296.311 134.732 296.4 134.891 296.433 135.065C296.667 136.261 296.097 138.168 295.737 139.199C295.687 139.339 295.595 139.461 295.474 139.547C295.352 139.633 295.207 139.68 295.058 139.68C294.962 139.68 294.867 139.661 294.779 139.624Z" fill="#8BC83F"/>
<path d="M24.0174 138.948H19.9732V137.722C21.2511 136.835 22.3834 136.912 23.8729 137.794L24.0174 138.948Z" fill="#6C63FF"/>
<path d="M19.0368 160.711H18.1513L18.0189 157.303H19.0368V160.711Z" fill="#FFB8B8"/>
<path d="M19.2624 161.568L16.4077 161.568V161.532C16.4077 161.386 16.4364 161.242 16.4922 161.107C16.5481 160.973 16.6299 160.85 16.7331 160.747C16.8363 160.644 16.9588 160.563 17.0936 160.507C17.2284 160.451 17.3729 160.423 17.5188 160.423H17.5189L19.2625 160.423L19.2624 161.568Z" fill="#2F2E41"/>
<path d="M24.0237 160.711H24.9088L25.0412 157.303H24.0233L24.0237 160.711Z" fill="#FFB8B8"/>
<path d="M23.7977 160.423L25.5413 160.423H25.5414C25.6873 160.423 25.8318 160.451 25.9666 160.507C26.1014 160.563 26.2239 160.644 26.3271 160.747C26.4303 160.85 26.5122 160.973 26.568 161.107C26.6238 161.242 26.6526 161.386 26.6526 161.532V161.568L23.7978 161.568L23.7977 160.423Z" fill="#2F2E41"/>
<path d="M24.0468 160.274C23.973 160.274 23.9014 160.249 23.8437 160.203C23.7861 160.157 23.7458 160.092 23.7295 160.02L21.5351 150.468C21.5303 150.443 21.517 150.422 21.4977 150.406C21.4783 150.391 21.4541 150.382 21.4293 150.383H21.4288C21.4039 150.383 21.3797 150.391 21.3604 150.407C21.3411 150.422 21.3279 150.444 21.3233 150.469L19.3081 159.957C19.2924 160.03 19.2523 160.095 19.1945 160.141C19.1367 160.188 19.0646 160.214 18.9902 160.214H18.0302C17.986 160.214 17.9421 160.205 17.9015 160.188C17.8608 160.17 17.8241 160.144 17.7938 160.112C17.7634 160.08 17.7399 160.042 17.7248 160.001C17.7097 159.959 17.7032 159.915 17.7058 159.871L18.4208 147.845L18.7086 147.76L18.714 147.76L24.3656 147.809L25.5692 159.822C25.5734 159.865 25.5691 159.908 25.5563 159.949C25.5436 159.99 25.5228 160.028 25.4951 160.061C25.4675 160.095 25.4335 160.122 25.3952 160.141C25.3568 160.161 25.315 160.173 25.272 160.177L24.0729 160.273C24.0641 160.274 24.0555 160.274 24.0468 160.274Z" fill="#2F2E41"/>
<path d="M21.7129 136.752C22.6926 136.752 23.4867 135.959 23.4867 134.981C23.4867 134.004 22.6926 133.211 21.7129 133.211C20.7333 133.211 19.9392 134.004 19.9392 134.981C19.9392 135.959 20.7333 136.752 21.7129 136.752Z" fill="#FFB8B8"/>
<path d="M20.6263 149.163C20.3152 149.167 20.0052 149.123 19.7072 149.034C19.4421 148.954 19.1962 148.821 18.9846 148.643C18.773 148.465 18.6002 148.245 18.4767 147.998C18.4376 147.923 18.429 147.837 18.4525 147.756C18.6482 147.09 19.5935 143.626 18.9903 140.873C18.9052 140.49 18.8981 140.094 18.9695 139.709C19.0409 139.324 19.1894 138.957 19.406 138.63C19.6175 138.306 19.8923 138.028 20.214 137.812C20.5357 137.596 20.8977 137.447 21.2783 137.373V137.373C21.3784 137.354 21.479 137.338 21.5773 137.326C21.9981 137.274 22.4251 137.316 22.8278 137.448C23.2305 137.58 23.599 137.8 23.9068 138.091C24.2238 138.387 24.4712 138.75 24.6312 139.153C24.7912 139.557 24.8599 139.99 24.8324 140.423L24.3688 147.847C24.3656 147.903 24.348 147.956 24.3176 148.003C24.2873 148.05 24.2452 148.088 24.1957 148.114C23.6618 148.393 22.058 149.163 20.6263 149.163Z" fill="#3F3D56"/>
<path d="M23.7167 133.678C23.5325 133.216 23.195 132.831 22.7605 132.587C22.3261 132.343 21.8211 132.256 21.3297 132.339L21.889 132.79C21.1941 132.813 20.4627 132.763 19.9666 133.25C20.1245 133.245 20.3315 133.582 20.4895 133.578C20.3417 133.588 20.1994 133.638 20.0774 133.722C19.9554 133.806 19.8582 133.921 19.796 134.055C19.6752 134.327 19.6469 134.631 19.7155 134.92C19.8945 135.346 20.1027 135.758 20.3385 136.155C20.3179 135.451 21.707 133.772 22.3853 133.947C22.0407 134.075 21.7416 134.301 21.5259 134.598C21.9873 134.366 22.5092 134.28 23.0209 134.354C23.1377 134.381 23.2582 134.387 23.3773 134.374C23.4502 134.36 23.5183 134.327 23.5749 134.279C23.6316 134.23 23.6749 134.169 23.7008 134.099C23.7266 134.029 23.7342 133.954 23.7227 133.881C23.7113 133.808 23.6811 133.738 23.6352 133.68L23.7167 133.678Z" fill="#2F2E41"/>
<path d="M20.5042 148.717C20.4594 148.717 20.4151 148.708 20.374 148.69L17.0087 147.224C16.9372 147.193 16.8792 147.138 16.8453 147.068C16.8114 146.998 16.8039 146.918 16.8243 146.843L19.0522 138.444C19.0936 138.288 19.1658 138.141 19.2647 138.013C19.3635 137.885 19.4869 137.778 19.6278 137.698C19.7686 137.618 19.924 137.567 20.0848 137.548C20.2456 137.528 20.4087 137.541 20.5645 137.586L21.4553 137.84L20.8282 148.412C20.8249 148.464 20.8092 148.514 20.7822 148.559C20.7552 148.604 20.7178 148.642 20.6732 148.669C20.6224 148.7 20.5639 148.717 20.5042 148.717Z" fill="#1F4C6B"/>
<path d="M26.7328 146.843L26.5847 146.286L26.3702 145.476L26.2669 145.088L26.0525 144.28L24.5048 138.444C24.4636 138.287 24.3914 138.141 24.2926 138.013C24.1938 137.885 24.0703 137.777 23.9295 137.697C23.7886 137.618 23.6332 137.567 23.4723 137.547C23.3114 137.528 23.1483 137.541 22.9926 137.586L22.1022 137.84L22.5434 145.276L22.5889 146.052L22.6178 146.541V146.542L22.664 147.314L22.729 148.412C22.7343 148.494 22.7707 148.572 22.8309 148.628C22.8911 148.685 22.9705 148.717 23.0533 148.717C23.098 148.717 23.1423 148.708 23.1833 148.69L26.5486 147.224C26.6201 147.193 26.6782 147.138 26.712 147.068C26.7459 146.998 26.7532 146.918 26.7328 146.843Z" fill="#1F4C6B"/>
<path d="M26.267 145.088L22.5888 146.052L22.5432 145.276L26.0524 144.279L26.267 145.088Z" fill="#CCCCCC"/>
<path d="M26.5847 146.286L22.664 147.314L22.6176 146.542V146.541L26.3702 145.476L26.5847 146.286Z" fill="#CCCCCC"/>
<path d="M20.9686 145.443L20.923 146.205L17.3157 145.132L17.5271 144.335L20.9686 145.443Z" fill="#CCCCCC"/>
<path d="M20.8934 146.706L17.2125 145.521L17.0007 146.32L20.8486 147.464L20.8934 146.706Z" fill="#CCCCCC"/>
<path d="M17.2765 147.503C17.3862 147.475 17.4884 147.422 17.5757 147.35C17.663 147.278 17.7334 147.187 17.7819 147.085C17.8304 146.983 17.8558 146.871 17.8564 146.758C17.8569 146.645 17.8326 146.533 17.7852 146.43L19.5156 141.008L18.2886 140.751L16.702 146.067C16.5343 146.158 16.4058 146.308 16.341 146.487C16.2761 146.666 16.2794 146.863 16.3502 147.04C16.421 147.217 16.5544 147.362 16.7252 147.447C16.8959 147.533 17.092 147.552 17.2765 147.503V147.503Z" fill="#FFB8B8"/>
<path d="M19.5637 138.342C19.916 138.378 20.1142 138.774 20.0266 139.266L19.6062 141.629C19.5747 141.806 19.4286 141.946 19.3073 141.916L17.8853 141.561C17.7759 141.534 17.7355 141.378 17.7976 141.223L18.6512 139.086C18.709 138.884 18.8274 138.704 18.9905 138.571C19.1537 138.438 19.3537 138.359 19.5637 138.342Z" fill="#234F68"/>
<path d="M21.7064 131.668C22.3067 131.668 22.8834 131.901 23.3144 132.318C23.7454 132.735 23.9969 133.303 24.0155 133.902H24.4507C24.489 133.902 24.5257 133.917 24.5528 133.944C24.5799 133.971 24.5951 134.008 24.5951 134.046V134.623C24.5951 134.661 24.5799 134.698 24.5528 134.725C24.5257 134.752 24.489 134.767 24.4507 134.767H19.5399C19.5016 134.767 19.4648 134.752 19.4378 134.725C19.4107 134.698 19.3954 134.661 19.3954 134.623V133.974C19.3954 133.671 19.4552 133.372 19.5714 133.092C19.6875 132.812 19.8577 132.558 20.0723 132.343C20.2869 132.129 20.5417 131.959 20.822 131.843C21.1024 131.728 21.4029 131.668 21.7064 131.668Z" fill="#1F4C6B"/>
<path d="M21.9826 145.925H20.9617C20.929 145.925 20.8974 145.913 20.8731 145.891C20.8488 145.869 20.8337 145.839 20.8306 145.806L20.6263 143.716H22.318L22.1137 145.806C22.1106 145.839 22.0955 145.869 22.0712 145.891C22.0469 145.913 22.0153 145.925 21.9826 145.925Z" fill="#E6E6E6"/>
<path d="M22.3153 143.979H20.6289C20.594 143.979 20.5605 143.965 20.5358 143.94C20.5111 143.916 20.4972 143.882 20.4972 143.847V143.532C20.4972 143.497 20.5111 143.463 20.5358 143.439C20.5605 143.414 20.594 143.4 20.6289 143.4H22.3153C22.3502 143.4 22.3837 143.414 22.4084 143.439C22.4331 143.463 22.447 143.497 22.4471 143.532V143.847C22.447 143.882 22.4331 143.916 22.4084 143.94C22.3837 143.965 22.3502 143.979 22.3153 143.979Z" fill="#CCCCCC"/>
<path d="M21.494 144.804C21.5337 144.808 21.573 144.816 21.6115 144.827L24.3302 142.5L24.1713 141.646L25.431 141.238L25.8595 142.722C25.8941 142.842 25.8888 142.97 25.8444 143.087C25.8 143.204 25.7189 143.303 25.6133 143.369L22.1701 145.544C22.1725 145.698 22.1281 145.848 22.0426 145.976C21.9571 146.104 21.8347 146.203 21.6916 146.259C21.5485 146.316 21.3915 146.328 21.2415 146.293C21.0915 146.258 20.9556 146.179 20.8519 146.066C20.7482 145.952 20.6816 145.81 20.6609 145.657C20.6403 145.505 20.6665 145.35 20.7362 145.213C20.8059 145.076 20.9158 144.964 21.0512 144.891C21.1865 144.817 21.341 144.787 21.4941 144.804H21.494Z" fill="#FFB8B8"/>
<path d="M24.3373 138.538C24.7137 138.433 25.0897 138.718 25.2157 139.206L25.8205 141.543C25.8658 141.718 25.7778 141.904 25.6402 141.924L24.0293 142.155C23.9053 142.173 23.7961 142.046 23.7916 141.879L23.729 139.579C23.7051 139.363 23.7513 139.146 23.8608 138.958C23.9703 138.771 24.1374 138.623 24.3373 138.538Z" fill="#1F4C6B"/>
<path d="M42.6484 144.861H41.4219C41.3826 144.861 41.3446 144.847 41.3154 144.82C41.2863 144.794 41.2681 144.758 41.2644 144.719L41.0189 142.207H43.0515L42.806 144.719C42.8023 144.758 42.7841 144.794 42.7549 144.82C42.7258 144.847 42.6878 144.861 42.6484 144.861Z" fill="#E6E6E6"/>
<path d="M43.0482 142.523H41.0222C40.9802 142.523 40.94 142.507 40.9103 142.477C40.8806 142.447 40.8639 142.407 40.8639 142.365V141.986C40.8639 141.944 40.8806 141.904 40.9103 141.874C40.94 141.845 40.9802 141.828 41.0222 141.828H43.0482C43.0902 141.828 43.1304 141.845 43.1601 141.874C43.1898 141.904 43.2065 141.944 43.2065 141.986V142.365C43.2065 142.407 43.1898 142.447 43.1601 142.477C43.1304 142.507 43.0902 142.523 43.0482 142.523Z" fill="#CCCCCC"/>
<path d="M54.6981 159.61C53.807 158.427 53.1025 157.114 52.6092 155.719C52.5806 155.635 52.5826 155.544 52.6149 155.462C52.6472 155.38 52.7076 155.312 52.7855 155.27L55.8349 153.639C55.8842 153.613 55.9389 153.598 55.995 153.596C56.051 153.593 56.1068 153.604 56.1581 153.626C56.2104 153.649 56.2568 153.683 56.2938 153.727C56.3308 153.77 56.3574 153.821 56.3717 153.876C56.7266 155.221 57.3937 156.464 58.3192 157.504C58.3572 157.546 58.3852 157.596 58.4008 157.651C58.4164 157.706 58.4193 157.763 58.4092 157.819C58.3996 157.875 58.3774 157.927 58.3445 157.972C58.3116 158.017 58.2688 158.054 58.2193 158.081L55.1699 159.711C55.0919 159.753 55.0017 159.765 54.9153 159.747C54.8289 159.728 54.7519 159.68 54.6981 159.61Z" fill="#CCCCCC"/>
<path d="M54.9062 159.453C54.9226 159.474 54.9456 159.488 54.9713 159.493C54.997 159.499 55.0238 159.495 55.0469 159.482L58.0963 157.852C58.1111 157.844 58.1239 157.833 58.1338 157.82C58.1436 157.806 58.1502 157.79 58.1529 157.774C58.1561 157.757 58.1552 157.739 58.1503 157.722C58.1454 157.705 58.1367 157.689 58.1247 157.676C57.1721 156.606 56.4852 155.327 56.1199 153.942C56.1157 153.925 56.1075 153.909 56.0961 153.896C56.0847 153.882 56.0703 153.871 56.0541 153.865C56.0388 153.858 56.0222 153.855 56.0055 153.855C55.9888 153.856 55.9724 153.86 55.9578 153.868L52.9084 155.499C52.8853 155.512 52.8673 155.532 52.8575 155.556C52.8477 155.58 52.8467 155.607 52.8547 155.632C53.3392 157.003 54.031 158.292 54.9062 159.453Z" fill="white"/>
<path d="M56.0351 155.967L54.3742 156.698C54.3111 156.726 54.2395 156.728 54.1751 156.703C54.1108 156.678 54.0589 156.629 54.031 156.566L53.9899 156.473C53.9621 156.41 53.9605 156.338 53.9854 156.274C54.0104 156.21 54.0598 156.158 54.1229 156.13L55.7837 155.398C55.8469 155.371 55.9185 155.369 55.9829 155.394C56.0472 155.419 56.099 155.468 56.127 155.531L56.1681 155.624C56.1959 155.687 56.1975 155.759 56.1725 155.823C56.1476 155.887 56.0982 155.939 56.0351 155.967Z" fill="#CCCCCC"/>
<path d="M56.6424 157.092L54.9816 157.824C54.9184 157.852 54.8468 157.853 54.7825 157.829C54.7181 157.804 54.6663 157.754 54.6383 157.691L54.5973 157.598C54.5695 157.535 54.5679 157.464 54.5928 157.4C54.6177 157.335 54.6672 157.284 54.7303 157.256L56.3911 156.524C56.4543 156.496 56.5259 156.495 56.5902 156.52C56.6546 156.545 56.7064 156.594 56.7343 156.657L56.7754 156.75C56.8032 156.813 56.8048 156.884 56.7799 156.949C56.755 157.013 56.7055 157.064 56.6424 157.092Z" fill="#CCCCCC"/>
<path d="M52.7472 156.154C52.6326 156.081 52.5356 155.983 52.4629 155.868C52.3903 155.753 52.3438 155.623 52.3267 155.488C52.3097 155.354 52.3225 155.217 52.3642 155.087C52.4059 154.958 52.4756 154.839 52.5683 154.739L51.8679 144.819L53.8854 145.014L53.9408 154.729C54.0983 154.896 54.1891 155.114 54.196 155.343C54.2029 155.572 54.1255 155.795 53.9783 155.971C53.8312 156.147 53.6246 156.262 53.3977 156.296C53.1708 156.33 52.9394 156.28 52.7472 156.154Z" fill="#A0616A"/>
<path d="M52.3246 148.152C52.2774 148.119 52.2383 148.074 52.2104 148.023C52.1825 147.973 52.1664 147.916 52.1633 147.858L52.0155 145.184C52.0009 144.919 52.085 144.658 52.2518 144.452C52.4185 144.245 52.6559 144.107 52.9184 144.065C53.1808 144.023 53.4496 144.079 53.6729 144.223C53.8963 144.367 54.0584 144.588 54.1279 144.844L54.7773 147.235C54.8043 147.334 54.7905 147.441 54.739 147.53C54.6876 147.62 54.6025 147.686 54.5027 147.713L52.6554 148.213C52.5993 148.228 52.5404 148.23 52.4832 148.22C52.4259 148.21 52.3717 148.186 52.3246 148.152Z" fill="#3F3D56"/>
<path d="M48.8858 168.35L47.8224 168.35L47.3162 164.255H48.8862L48.8858 168.35Z" fill="#A0616A"/>
<path d="M46.8249 168.047H49.1139V169.336H45.7708V169.099C45.7708 168.961 45.798 168.824 45.851 168.696C45.904 168.569 45.9816 168.453 46.0795 168.355C46.1774 168.257 46.2936 168.18 46.4215 168.127C46.5494 168.074 46.6865 168.047 46.8249 168.047Z" fill="#2F2E41"/>
<path d="M52.877 168.35L51.8136 168.35L51.3074 164.255H52.8774L52.877 168.35Z" fill="#A0616A"/>
<path d="M50.8161 168.047H53.1051V169.336H49.762V169.099C49.762 168.961 49.7892 168.824 49.8422 168.696C49.8952 168.569 49.9728 168.453 50.0707 168.355C50.1686 168.257 50.2848 168.18 50.4127 168.127C50.5406 168.074 50.6777 168.047 50.8161 168.047Z" fill="#2F2E41"/>
<path d="M48.8357 166.287L47.6647 166.231C47.565 166.227 47.4708 166.184 47.4017 166.112C47.3325 166.04 47.2936 165.945 47.2929 165.845C46.9842 161.089 46.5566 155.99 47.2112 154.02C47.2108 153.964 47.2225 153.908 47.2456 153.857C47.2688 153.806 47.3027 153.76 47.3451 153.724C47.3875 153.687 47.4374 153.659 47.4913 153.644C47.5453 153.628 47.602 153.624 47.6577 153.632L52.3424 154.31C52.435 154.323 52.5198 154.369 52.5812 154.439C52.6426 154.51 52.6765 154.6 52.6768 154.693C53.2749 157.026 53.3019 161.255 53.2793 165.65C53.2797 165.702 53.2699 165.753 53.2504 165.8C53.231 165.848 53.2023 165.891 53.166 165.928C53.1297 165.964 53.0865 165.993 53.0389 166.013C52.9914 166.033 52.9404 166.043 52.8888 166.043H51.6264C51.5333 166.043 51.4431 166.01 51.3723 165.95C51.3015 165.889 51.2548 165.806 51.2407 165.714L50.4618 160.772C50.4504 160.7 50.4132 160.634 50.3571 160.587C50.3009 160.54 50.2296 160.515 50.1562 160.516C50.0829 160.517 50.0126 160.545 49.9582 160.594C49.9038 160.643 49.869 160.71 49.8603 160.783L49.242 165.944C49.2304 166.039 49.1846 166.126 49.1132 166.189C49.0418 166.252 48.9497 166.287 48.8543 166.288C48.8481 166.288 48.842 166.288 48.8357 166.287Z" fill="#2F2E41"/>
<path d="M49.6601 154.694C48.9763 154.293 48.2185 154.034 47.432 153.932C47.3803 153.927 47.3302 153.912 47.2846 153.887C47.2391 153.862 47.1991 153.828 47.167 153.787C47.1343 153.746 47.1103 153.699 47.0964 153.648C47.0825 153.597 47.079 153.545 47.0862 153.493L48.2088 145.175C48.2734 144.689 48.4617 144.227 48.7558 143.833C49.0499 143.44 49.4399 143.128 49.8888 142.927C50.3234 142.728 50.8018 142.643 51.2786 142.68C51.7554 142.718 52.2148 142.876 52.6129 143.14C52.6513 143.166 52.6891 143.192 52.7261 143.219C53.1846 143.554 53.5334 144.017 53.7285 144.55C53.9236 145.083 53.9563 145.661 53.8225 146.213C53.1342 149.023 52.8977 153.63 52.8573 154.526C52.8541 154.602 52.8284 154.675 52.7833 154.737C52.7383 154.799 52.6759 154.846 52.6041 154.872C52.1806 155.026 51.7337 155.105 51.2831 155.107C50.7155 155.11 50.1566 154.968 49.6601 154.694Z" fill="#3F3D56"/>
<path d="M50.599 141.798C51.776 141.798 52.7301 140.846 52.7301 139.671C52.7301 138.497 51.776 137.544 50.599 137.544C49.4221 137.544 48.468 138.497 48.468 139.671C48.468 140.846 49.4221 141.798 50.599 141.798Z" fill="#A0616A"/>
<path d="M52.107 141.354C52.0179 141.45 51.9033 141.518 51.7765 141.551C51.6497 141.584 51.5161 141.581 51.3914 141.541C51.2667 141.501 51.156 141.426 51.0724 141.325C50.9888 141.224 50.9357 141.102 50.9194 140.972C50.9153 140.927 50.9156 140.882 50.9203 140.838C50.9979 140.592 51.0447 140.337 51.0596 140.08C51.0516 140.012 51.0265 139.948 50.9867 139.893C50.6699 139.47 49.9262 140.083 49.6272 139.7C49.4439 139.465 49.6594 139.094 49.5187 138.832C49.3331 138.485 48.7831 138.656 48.4382 138.466C48.0544 138.255 48.0774 137.667 48.33 137.31C48.4944 137.099 48.7035 136.926 48.9423 136.805C49.1811 136.684 49.4437 136.616 49.7116 136.608C50.2479 136.595 50.7805 136.699 51.2727 136.912C51.8539 137.101 52.3669 137.456 52.7477 137.933C52.9448 138.246 53.0697 138.598 53.1133 138.965C53.157 139.332 53.1183 139.704 53.0001 140.055C52.7917 140.542 52.4881 140.984 52.107 141.354Z" fill="#2F2E41"/>
<path d="M53.7947 143.422C53.7574 143.247 53.4372 143.008 52.9791 142.813C52.2427 142.515 51.4463 142.395 50.6548 142.463C49.8632 142.531 49.0988 142.784 48.424 143.203C48.3769 143.205 48.3319 143.223 48.296 143.253C48.2601 143.284 48.2353 143.325 48.2253 143.371L46.6843 150.173L46.4839 151.059L46.3511 151.645L46.1507 152.529L46.044 153.001C46.0372 153.031 46.0369 153.062 46.0431 153.092C46.0494 153.123 46.0621 153.151 46.0803 153.176C46.0985 153.201 46.1219 153.222 46.1489 153.237C46.1758 153.253 46.2057 153.262 46.2366 153.265L52.8906 153.838C52.8967 153.838 52.9036 153.839 52.9097 153.839C52.9646 153.839 53.0173 153.817 53.0572 153.78C53.0972 153.742 53.1213 153.691 53.1249 153.636L53.1882 152.674L53.2559 151.645L53.2854 151.2L53.3522 150.173L53.7955 143.433V143.427L53.7947 143.422Z" fill="#1F4C6B"/>
<path d="M42.8766 143.85C42.8873 143.897 42.8942 143.944 42.8974 143.992L46.6246 146.138L47.5305 145.617L48.4963 146.879L46.5582 148.258L42.3061 144.91C42.1327 144.974 41.9438 144.984 41.7646 144.938C41.5855 144.892 41.4245 144.793 41.3031 144.654C41.1817 144.515 41.1056 144.342 41.085 144.159C41.0644 143.975 41.1003 143.79 41.1878 143.627C41.2753 143.465 41.4103 143.333 41.5749 143.248C41.7395 143.164 41.9259 143.132 42.1092 143.156C42.2925 143.181 42.4642 143.26 42.6012 143.384C42.7383 143.508 42.8344 143.67 42.8766 143.85V143.85Z" fill="#A0616A"/>
<path d="M46.7577 145.955C46.7515 145.898 46.7584 145.839 46.7778 145.784C46.7972 145.73 46.8287 145.68 46.8699 145.639L48.7669 143.745C48.9548 143.558 49.2057 143.446 49.4712 143.432C49.7366 143.418 49.9978 143.503 50.2044 143.67C50.4111 143.837 50.5484 144.074 50.5901 144.336C50.6317 144.598 50.5747 144.866 50.43 145.089L49.0791 147.166C49.0226 147.253 48.9341 147.314 48.8328 147.335C48.7316 147.357 48.6259 147.337 48.539 147.281L46.9335 146.241C46.8846 146.21 46.8435 146.168 46.813 146.118C46.7826 146.069 46.7637 146.013 46.7577 145.955Z" fill="#1F4C6B"/>
<path d="M53.3521 150.173L53.2855 151.2L46.4836 151.059L46.6842 150.173H53.3521Z" fill="#CCCCCC"/>
<path d="M53.2559 151.645L53.1882 152.674L46.1507 152.529L46.3513 151.645H53.2559Z" fill="#CCCCCC"/>
<path d="M50.6407 135.539C49.9195 135.539 49.2266 135.819 48.7088 136.32C48.191 136.821 47.8889 137.504 47.8665 138.223H47.3437C47.2976 138.223 47.2535 138.242 47.221 138.274C47.1884 138.307 47.1701 138.351 47.1701 138.397V139.089C47.1701 139.135 47.1884 139.179 47.221 139.212C47.2535 139.244 47.2976 139.263 47.3437 139.263H53.2437C53.2897 139.263 53.3338 139.244 53.3664 139.212C53.3989 139.179 53.4172 139.135 53.4172 139.089V138.31C53.4172 137.946 53.3454 137.586 53.2059 137.25C53.0663 136.913 52.8618 136.608 52.604 136.351C52.3462 136.093 52.0401 135.889 51.7033 135.75C51.3664 135.611 51.0054 135.539 50.6407 135.539Z" fill="#1F4C6B"/>
<path d="M66.2671 163.73H65.672C65.6682 163.658 64.8692 161.787 64.8692 161.787L64.3863 160.621L64.0671 159.844L63.5841 158.678L63.0312 157.337C63.0171 157.277 62.9828 157.223 62.9341 157.184C62.8853 157.145 62.8248 157.124 62.7626 157.124C62.7003 157.124 62.6399 157.145 62.5911 157.184C62.5423 157.223 62.5081 157.277 62.4939 157.337L61.941 158.678L61.4581 159.844L61.1388 160.621L60.6559 161.787C60.6559 161.787 59.857 163.658 59.8532 163.73H59.2581C59.1032 163.73 58.9546 163.791 58.8451 163.901C58.7355 164.01 58.674 164.158 58.674 164.313C58.674 164.467 58.7355 164.616 58.8451 164.725C58.9546 164.834 59.1032 164.896 59.2581 164.896H66.2671C66.422 164.896 66.5705 164.834 66.6801 164.725C66.7896 164.616 66.8512 164.467 66.8512 164.313C66.8512 164.158 66.7896 164.01 66.6801 163.901C66.5705 163.791 66.422 163.73 66.2671 163.73Z" fill="#FF6584"/>
<path d="M65.8777 173.834H65.647C65.6681 173.784 64.6433 171.168 64.6433 171.168L64.0281 169.672L63.6153 168.669L63 167.173L62.3304 165.553C62.3115 165.476 62.2675 165.408 62.2054 165.359C62.1433 165.311 62.0666 165.284 61.9877 165.284C61.9087 165.284 61.8321 165.311 61.7699 165.359C61.7078 165.408 61.6638 165.476 61.645 165.553L60.9753 167.173L60.3601 168.669L59.9433 169.672L59.3282 171.168C59.3282 171.168 58.3072 173.784 58.3283 173.834H58.0899C57.935 173.834 57.7864 173.896 57.6769 174.005C57.5673 174.114 57.5058 174.262 57.5058 174.417C57.5058 174.572 57.5673 174.72 57.6769 174.829C57.7864 174.939 57.935 175 58.0899 175H65.8777C66.0326 175 66.1811 174.939 66.2907 174.829C66.4002 174.72 66.4617 174.572 66.4617 174.417C66.4617 174.262 66.4002 174.114 66.2907 174.005C66.1811 173.896 66.0326 173.834 65.8777 173.834Z" fill="#FF6584"/>
<path d="M64.0669 159.844H61.458L61.9408 158.678H63.5841L64.0669 159.844Z" fill="#F2F2F2"/>
<path d="M64.869 161.787H60.6559L61.1387 160.621H64.3862L64.869 161.787Z" fill="#F2F2F2"/>
<path d="M63.6152 168.669H60.3599L60.9752 167.173H63L63.6152 168.669Z" fill="#F2F2F2"/>
<path d="M64.6432 171.168H59.328L59.9433 169.672H64.028L64.6432 171.168Z" fill="#F2F2F2"/>
<path d="M151.81 141.48C151.87 141.42 151.916 141.349 151.946 141.269C151.975 141.19 151.987 141.106 151.98 141.022C151.973 140.937 151.947 140.856 151.905 140.783C151.863 140.709 151.806 140.646 151.737 140.598L151.444 138.675L150.244 139.052L150.902 140.767C150.828 140.888 150.801 141.033 150.826 141.173C150.851 141.312 150.927 141.438 151.039 141.526C151.151 141.614 151.291 141.658 151.433 141.649C151.575 141.641 151.709 141.58 151.81 141.48Z" fill="#FFB8B8"/>
<path d="M150.574 140.576L149.833 137.125C149.761 136.795 149.775 136.451 149.874 136.128C149.973 135.804 150.154 135.512 150.399 135.278C151.346 134.366 152.564 133.218 152.985 132.921C153.38 132.64 153.857 132.499 154.342 132.521L154.352 132.522L154.989 133.123L153.601 135.402L151.496 136.718L151.73 140.1L150.574 140.576Z" fill="#8BC83F"/>
<path d="M153.166 135.887H150.06C149.925 135.887 149.816 135.996 149.816 136.13C149.816 136.264 149.925 136.373 150.06 136.373H153.166C153.301 136.373 153.41 136.264 153.41 136.13C153.41 135.996 153.301 135.887 153.166 135.887Z" fill="#CCCCCC"/>
<path d="M153.166 141.176H150.06C149.925 141.176 149.816 141.284 149.816 141.419C149.816 141.553 149.925 141.662 150.06 141.662H153.166C153.301 141.662 153.41 141.553 153.41 141.419C153.41 141.284 153.301 141.176 153.166 141.176Z" fill="#CCCCCC"/>
<path d="M151.643 154.428C151.613 154.428 151.584 154.416 151.561 154.396C151.539 154.375 151.525 154.347 151.522 154.317L149.969 136.141C149.968 136.125 149.969 136.109 149.974 136.094C149.979 136.078 149.987 136.064 149.997 136.052C150.007 136.04 150.02 136.029 150.034 136.022C150.048 136.015 150.064 136.01 150.08 136.009C150.096 136.007 150.112 136.009 150.127 136.014C150.142 136.019 150.156 136.026 150.169 136.037C150.181 136.047 150.191 136.06 150.198 136.074C150.206 136.088 150.21 136.103 150.212 136.119L151.642 152.913L153.031 136.12C153.032 136.104 153.037 136.088 153.044 136.074C153.051 136.06 153.061 136.047 153.074 136.037C153.086 136.026 153.1 136.019 153.115 136.014C153.131 136.009 153.147 136.007 153.163 136.008C153.179 136.01 153.194 136.014 153.208 136.022C153.223 136.029 153.235 136.039 153.246 136.051C153.256 136.064 153.264 136.078 153.268 136.093C153.273 136.108 153.275 136.125 153.274 136.141L151.765 154.317C151.762 154.347 151.748 154.375 151.726 154.396C151.703 154.416 151.674 154.428 151.644 154.428L151.643 154.428Z" fill="#CCCCCC"/>
<path d="M155.13 131.794C156.012 131.794 156.728 131.079 156.728 130.198C156.728 129.318 156.012 128.603 155.13 128.603C154.247 128.603 153.531 129.318 153.531 130.198C153.531 131.079 154.247 131.794 155.13 131.794Z" fill="#FFB8B8"/>
<path d="M150.366 153.699L149.606 153.457L150.179 150.416L151.301 150.773L150.366 153.699Z" fill="#FFB8B8"/>
<path d="M150.324 154.372L147.877 153.593L147.898 153.53C147.975 153.287 148.146 153.085 148.373 152.968C148.6 152.851 148.864 152.829 149.107 152.906L150.637 153.393L150.324 154.372Z" fill="#2F2E41"/>
<path d="M155.897 153.683H155.099L154.719 150.612H155.897V153.683Z" fill="#FFB8B8"/>
<path d="M153.591 154.392H156.037V153.486H154.493C154.253 153.486 154.024 153.581 153.855 153.75C153.686 153.919 153.591 154.148 153.591 154.386V154.392Z" fill="#2F2E41"/>
<path d="M155.873 152.686L155.604 152.646C155.266 152.626 154.931 152.564 154.609 152.461C154.542 152.432 154.538 151.993 154.578 149.527C154.607 147.717 154.643 145.465 154.573 144.256C154.57 144.208 154.551 144.163 154.519 144.127C154.487 144.091 154.444 144.067 154.397 144.059C154.35 144.051 154.301 144.058 154.259 144.081C154.217 144.104 154.183 144.14 154.164 144.184C153.557 145.584 152.537 148.718 151.863 150.792C151.628 151.513 151.443 152.083 151.325 152.425C151.303 152.489 151.257 152.543 151.196 152.576C151.136 152.608 151.066 152.617 150.999 152.601C150.444 152.462 150.481 152.403 149.691 152.199C149.622 152.182 149.563 152.139 149.526 152.079C149.489 152.019 149.476 151.947 149.491 151.878C149.634 151.205 152.251 140.292 152.451 139.254C152.458 139.219 152.472 139.185 152.492 139.155C152.512 139.125 152.537 139.099 152.567 139.078C152.597 139.058 152.631 139.044 152.667 139.037C152.702 139.03 152.739 139.03 152.774 139.037C153.364 139.156 153.722 139.281 154.304 139.403C154.933 139.534 155.582 139.67 156.216 139.796C156.279 139.809 156.336 139.843 156.376 139.894C156.552 140.082 156.769 140.228 157.011 140.32C157.177 140.399 156.801 140.392 156.945 140.506C157.531 140.969 156.689 150.359 156.18 152.48C156.164 152.547 156.124 152.605 156.067 152.643C156.01 152.681 155.941 152.697 155.873 152.687V152.686Z" fill="#2F2E41"/>
<path d="M155.811 131.594C155.717 131.199 156.189 130.349 156.096 129.954C156.033 129.686 155.402 129.868 155.255 129.636C155.187 129.516 155.09 129.414 154.973 129.341C154.857 129.267 154.724 129.222 154.586 129.212C154.269 129.208 153.958 129.443 153.658 129.341C153.587 129.306 153.524 129.257 153.472 129.198C153.42 129.138 153.38 129.068 153.356 128.993C153.331 128.918 153.321 128.839 153.328 128.76C153.334 128.681 153.356 128.605 153.392 128.534C153.552 128.255 153.801 128.037 154.1 127.914C154.57 127.628 155.133 127.533 155.672 127.651C155.98 127.77 156.262 127.947 156.503 128.172C156.745 128.351 156.958 128.566 157.133 128.81C157.282 129.065 157.363 129.353 157.368 129.648C157.372 129.942 157.301 130.233 157.16 130.492C156.869 131.009 156.405 131.408 155.849 131.618" fill="#2F2E41"/>
<path d="M151.886 140.79C152.059 140.502 152.321 139.155 152.644 136.893C152.864 135.349 153.055 133.78 153.15 132.979C153.158 132.914 153.181 132.852 153.219 132.799C153.257 132.745 153.308 132.703 153.367 132.675C153.429 132.645 153.49 132.617 153.551 132.59C154.283 132.256 155.095 132.138 155.892 132.249C156.689 132.361 157.438 132.698 158.049 133.221L158.056 133.228L158.058 133.237C158.061 133.255 158.391 135.03 157.715 136.23C157.048 137.413 157.04 140.548 157.04 140.579V140.619L157.002 140.608C155.964 140.313 151.957 140.83 151.916 140.835L151.854 140.844L151.886 140.79Z" fill="#8BC83F"/>
<path d="M157.917 136.677H154.811C154.676 136.677 154.567 136.786 154.567 136.92C154.567 137.055 154.676 137.164 154.811 137.164H157.917C158.052 137.164 158.161 137.055 158.161 136.92C158.161 136.786 158.052 136.677 157.917 136.677Z" fill="#CCCCCC"/>
<path d="M157.917 141.966H154.811C154.676 141.966 154.567 142.075 154.567 142.209C154.567 142.343 154.676 142.452 154.811 142.452H157.917C158.052 142.452 158.161 142.343 158.161 142.209C158.161 142.075 158.052 141.966 157.917 141.966Z" fill="#CCCCCC"/>
<path d="M156.394 154.489C156.364 154.489 156.335 154.477 156.312 154.457C156.29 154.436 156.276 154.408 156.273 154.378L154.72 136.931C154.717 136.899 154.727 136.867 154.748 136.842C154.769 136.818 154.798 136.802 154.831 136.799C154.863 136.796 154.895 136.806 154.92 136.827C154.944 136.848 154.96 136.877 154.963 136.91L156.393 152.973L157.782 136.91C157.783 136.894 157.788 136.878 157.795 136.864C157.802 136.85 157.812 136.837 157.825 136.827C157.837 136.817 157.851 136.809 157.866 136.804C157.882 136.799 157.898 136.797 157.914 136.799C157.93 136.8 157.945 136.805 157.959 136.812C157.974 136.819 157.986 136.829 157.997 136.842C158.007 136.854 158.015 136.868 158.019 136.883C158.024 136.899 158.026 136.915 158.025 136.931L156.516 154.377C156.513 154.408 156.499 154.436 156.477 154.457C156.454 154.477 156.425 154.489 156.394 154.489L156.394 154.489Z" fill="#CCCCCC"/>
<path d="M155.391 142.043C155.373 141.96 155.373 141.875 155.392 141.793C155.41 141.71 155.447 141.633 155.498 141.566C155.55 141.499 155.616 141.445 155.691 141.406C155.766 141.367 155.849 141.345 155.933 141.342L157.225 139.887L158.027 140.854L156.542 141.937C156.538 142.079 156.482 142.215 156.385 142.319C156.287 142.422 156.155 142.487 156.014 142.5C155.872 142.513 155.73 142.474 155.615 142.389C155.501 142.305 155.421 142.182 155.391 142.043H155.391Z" fill="#FFB8B8"/>
<path d="M156.143 141.03L158.181 138.318L157.13 136.071L157.207 133.406L158.068 133.247L158.077 133.251C158.496 133.496 158.82 133.873 158.999 134.323C159.19 134.8 159.587 136.425 159.886 137.704C159.965 138.033 159.957 138.376 159.864 138.702C159.771 139.027 159.596 139.323 159.355 139.561L156.855 142.056L156.143 141.03Z" fill="#8BC83F"/>
<path d="M147.601 153.734L150.389 154.404C150.443 154.419 150.5 154.414 150.551 154.39C150.602 154.366 150.643 154.326 150.666 154.275L153.061 147.92C153.072 147.896 153.077 147.869 153.077 147.843C153.077 147.816 153.072 147.79 153.061 147.765C153.049 147.738 153.032 147.713 153.01 147.693C152.988 147.672 152.962 147.656 152.934 147.646L150.838 146.847C150.805 146.835 150.769 146.829 150.734 146.831C150.698 146.833 150.664 146.842 150.632 146.859C150.605 146.872 150.581 146.891 150.561 146.915C150.542 146.938 150.528 146.966 150.52 146.995L150.52 146.996L149.04 152.597L149.018 152.598C148.559 152.625 148.123 152.807 147.78 153.113C147.709 153.199 147.657 153.298 147.626 153.405C147.595 153.512 147.586 153.624 147.601 153.734Z" fill="#CCCCCC"/>
<path d="M149.62 150.172L149.607 150.293L152.149 150.562L152.162 150.441L149.62 150.172Z" fill="#B3B3B3"/>
<path d="M149.398 151.174L149.348 151.285L151.394 152.203L151.444 152.092L149.398 151.174Z" fill="#B3B3B3"/>
<path d="M152.429 149.589L150.018 148.792L150.069 148.681L152.479 149.478L152.429 149.589Z" fill="#B3B3B3"/>
<path d="M152.673 149.042L150.262 147.88L150.312 147.769L152.723 148.931L152.673 149.042Z" fill="#B3B3B3"/>
<path d="M149.186 152.126L149.107 152.218L150.845 153.7L150.924 153.608L149.186 152.126Z" fill="#B3B3B3"/>
<path d="M148.692 152.617L148.581 152.667L149.279 154.203L149.39 154.153L148.692 152.617Z" fill="#B3B3B3"/>
<path d="M216.64 141.989C216.537 141.965 216.44 141.919 216.356 141.853C216.273 141.788 216.205 141.705 216.157 141.611C216.109 141.516 216.082 141.413 216.079 141.307C216.075 141.201 216.095 141.096 216.137 140.998L213.463 134.968L214.993 134.584L217.14 140.632C217.3 140.713 217.423 140.849 217.489 141.015C217.554 141.181 217.556 141.365 217.494 141.532C217.432 141.7 217.311 141.838 217.154 141.923C216.996 142.007 216.814 142.03 216.64 141.989Z" fill="#A0616A"/>
<path d="M213.959 136.858C213.916 136.839 213.878 136.811 213.848 136.776C213.817 136.74 213.794 136.699 213.78 136.654L213.313 135.093C213.211 134.877 213.199 134.629 213.28 134.404C213.361 134.179 213.528 133.995 213.745 133.893C213.961 133.791 214.21 133.779 214.435 133.86C214.661 133.941 214.845 134.108 214.947 134.324L215.851 135.687C215.877 135.726 215.894 135.77 215.901 135.816C215.909 135.862 215.906 135.909 215.893 135.954C215.881 135.999 215.858 136.041 215.828 136.076C215.798 136.112 215.76 136.141 215.718 136.16L214.23 136.855C214.188 136.875 214.142 136.886 214.095 136.886C214.048 136.886 214.002 136.877 213.959 136.858Z" fill="#6C63FF"/>
<path d="M219.403 136.08L217.763 137.239C217.742 137.254 217.717 137.262 217.691 137.262C217.665 137.262 217.639 137.254 217.618 137.239L217.175 136.907C217.16 136.896 217.148 136.882 217.14 136.866C217.131 136.85 217.126 136.832 217.125 136.814C217.125 136.796 217.128 136.778 217.135 136.761C217.142 136.744 217.153 136.729 217.167 136.717L218.429 135.594C218.446 135.579 218.466 135.57 218.488 135.565C218.509 135.561 218.532 135.563 218.552 135.57L219.374 135.863C219.395 135.871 219.414 135.885 219.428 135.902C219.442 135.92 219.451 135.941 219.454 135.963C219.457 135.985 219.454 136.008 219.445 136.028C219.436 136.049 219.422 136.067 219.403 136.08Z" fill="#3F3D56"/>
<path d="M219.27 135.97C219.274 135.959 219.273 135.947 219.269 135.937C219.264 135.926 219.255 135.918 219.244 135.914L218.504 135.649C218.497 135.647 218.489 135.646 218.481 135.648C218.474 135.649 218.466 135.653 218.461 135.658L217.322 136.671L217.316 136.678C217.312 136.682 217.31 136.687 217.309 136.693C217.308 136.698 217.307 136.704 217.308 136.709C217.309 136.715 217.311 136.72 217.314 136.725C217.317 136.729 217.321 136.734 217.325 136.737L217.724 137.036C217.732 137.041 217.741 137.044 217.75 137.044C217.759 137.044 217.768 137.041 217.776 137.035L219.254 135.99C219.261 135.985 219.267 135.978 219.27 135.97Z" fill="white"/>
<path d="M213.424 153.361H214.252L214.646 150.174H213.424V153.361Z" fill="#A0616A"/>
<path d="M213.213 153.091L214.844 153.091H214.844C214.98 153.091 215.115 153.118 215.241 153.17C215.368 153.222 215.482 153.299 215.579 153.395C215.675 153.491 215.752 153.606 215.804 153.731C215.856 153.857 215.883 153.992 215.883 154.128V154.162L213.213 154.162L213.213 153.091Z" fill="#2F2E41"/>
<path d="M210.656 153.361H211.484L211.877 150.174H210.656V153.361Z" fill="#A0616A"/>
<path d="M210.444 153.091L212.075 153.091H212.075C212.211 153.091 212.347 153.118 212.473 153.17C212.599 153.222 212.713 153.299 212.81 153.395C212.906 153.491 212.983 153.606 213.035 153.731C213.087 153.857 213.114 153.992 213.114 154.128V154.162L210.445 154.162L210.444 153.091Z" fill="#2F2E41"/>
<path d="M210.48 152.387C210.423 152.322 210.391 152.24 210.39 152.153C210.193 150.127 210.73 139.474 211.971 138.565L211.978 138.557L215.61 137.932L215.678 137.999C215.683 138.093 216.343 147.43 214.52 152.196C214.498 152.253 214.459 152.301 214.408 152.336C214.358 152.37 214.298 152.389 214.237 152.389H213.512C213.47 152.389 213.428 152.38 213.39 152.363C213.352 152.346 213.317 152.322 213.289 152.291C213.26 152.26 213.238 152.224 213.225 152.185C213.211 152.145 213.206 152.103 213.209 152.061L213.796 143.138C213.798 143.113 213.79 143.088 213.774 143.068C213.758 143.047 213.735 143.034 213.71 143.03C213.684 143.027 213.658 143.033 213.637 143.047C213.616 143.062 213.601 143.084 213.596 143.109L211.943 152.165C211.928 152.229 211.894 152.287 211.845 152.33C211.795 152.372 211.733 152.398 211.668 152.403L210.716 152.474C210.709 152.474 210.701 152.475 210.694 152.475C210.614 152.475 210.537 152.443 210.48 152.387Z" fill="#2F2E41"/>
<path d="M215.259 132.469C216.175 132.469 216.917 131.728 216.917 130.814C216.917 129.9 216.175 129.159 215.259 129.159C214.343 129.159 213.6 129.9 213.6 130.814C213.6 131.728 214.343 132.469 215.259 132.469Z" fill="#A0616A"/>
<path d="M211.264 140.015C211.194 139.943 211.153 139.848 211.151 139.748L211.828 136.584C211.288 134.292 212.007 133.862 212.819 133.428L212.814 133.426L213.153 132.51C213.164 132.469 213.183 132.431 213.211 132.399C213.238 132.367 213.272 132.341 213.31 132.323C213.348 132.305 213.39 132.296 213.432 132.297C213.474 132.297 213.516 132.306 213.554 132.325L215.283 133.241C215.361 133.285 215.418 133.357 215.443 133.443C215.472 133.534 215.47 133.632 215.438 133.721L215.31 134.066C215.64 134.506 216.15 136.247 215.61 136.921L216.018 139.167C216.027 139.249 216.006 139.332 215.96 139.402C215.914 139.471 215.845 139.521 215.765 139.545L211.505 140.09C211.488 140.094 211.472 140.095 211.455 140.095C211.383 140.094 211.314 140.065 211.264 140.015Z" fill="#1F4C6B"/>
<path d="M217.465 136.385C217.438 136.411 217.413 136.438 217.39 136.468L214.049 136.237L213.69 135.508L212.517 135.904L213.026 137.256C213.067 137.366 213.143 137.459 213.241 137.521C213.34 137.584 213.456 137.613 213.573 137.604L217.372 137.317C217.456 137.434 217.574 137.522 217.709 137.57C217.845 137.618 217.992 137.624 218.131 137.587C218.27 137.55 218.395 137.471 218.488 137.361C218.581 137.252 218.638 137.117 218.653 136.974C218.667 136.831 218.637 136.687 218.568 136.561C218.498 136.435 218.392 136.334 218.263 136.27C218.134 136.206 217.988 136.183 217.846 136.203C217.703 136.224 217.571 136.287 217.465 136.385V136.385Z" fill="#A0616A"/>
<path d="M213.924 136.249L212.468 136.733C212.426 136.747 212.382 136.751 212.339 136.747C212.296 136.742 212.254 136.728 212.216 136.706C212.179 136.683 212.146 136.653 212.122 136.617C212.097 136.581 212.08 136.541 212.072 136.498L211.807 134.994C211.738 134.782 211.755 134.551 211.856 134.352C211.957 134.153 212.133 134.002 212.345 133.932C212.557 133.862 212.789 133.879 212.988 133.979C213.188 134.079 213.34 134.254 213.41 134.466L214.099 135.824C214.119 135.863 214.13 135.906 214.132 135.949C214.133 135.993 214.126 136.036 214.109 136.077C214.092 136.117 214.067 136.153 214.035 136.183C214.003 136.213 213.965 136.235 213.924 136.249Z" fill="#1F4C6B"/>
<path d="M214.327 129.507C215.073 129.507 215.678 128.903 215.678 128.159C215.678 127.414 215.073 126.811 214.327 126.811C213.581 126.811 212.976 127.414 212.976 128.159C212.976 128.903 213.581 129.507 214.327 129.507Z" fill="#2F2E41"/>
<path d="M216.829 131.019C216.96 131.045 217.095 131.033 217.22 130.986C217.283 130.95 217.337 130.9 217.378 130.839C217.418 130.778 217.444 130.709 217.452 130.636C217.704 128.968 216.282 129.105 216.114 129.033C216.008 128.97 215.908 128.898 215.816 128.816C215.58 128.685 215.31 128.626 215.04 128.646C214.72 128.616 214.398 128.655 214.096 128.761C213.832 128.884 213.613 129.086 213.468 129.338C213.325 129.589 213.22 129.86 213.157 130.142C213.058 130.461 213.039 130.8 213.104 131.128C213.173 131.373 213.317 131.59 213.516 131.749C213.715 131.908 213.959 132.001 214.213 132.015C214.172 131.819 214.197 131.614 214.285 131.434C214.372 131.253 214.516 131.106 214.695 131.016C214.98 130.876 215.305 130.837 215.615 130.906C215.816 130.947 216.02 130.972 216.225 130.982C216.426 130.99 216.667 131.002 216.829 131.019Z" fill="#2F2E41"/>
<path d="M346.637 153.69C346.638 151.922 347.343 150.226 348.596 148.976C349.85 147.726 351.549 147.024 353.321 147.024C355.093 147.024 356.792 147.726 358.045 148.976C359.299 150.226 360.003 151.922 360.005 153.69" fill="#F2F2F2"/>
<path d="M353.321 153.69C353.273 153.69 353.227 153.671 353.193 153.637C353.159 153.603 353.14 153.558 353.14 153.51V149.994C353.14 149.946 353.159 149.9 353.193 149.867C353.227 149.833 353.273 149.814 353.321 149.814C353.369 149.814 353.415 149.833 353.448 149.867C353.482 149.9 353.501 149.946 353.501 149.994V153.51C353.501 153.558 353.482 153.603 353.448 153.637C353.415 153.671 353.369 153.69 353.321 153.69Z" fill="#CCCCCC"/>
<path d="M353.321 152.482C353.277 152.482 353.236 152.467 353.203 152.438L351.035 150.582C351.017 150.566 351.002 150.547 350.991 150.526C350.98 150.505 350.974 150.482 350.972 150.458C350.97 150.434 350.973 150.411 350.98 150.388C350.987 150.365 350.999 150.344 351.015 150.326C351.03 150.308 351.049 150.293 351.07 150.283C351.092 150.272 351.115 150.266 351.139 150.264C351.163 150.262 351.187 150.265 351.209 150.273C351.232 150.28 351.253 150.292 351.271 150.308L353.438 152.165C353.466 152.189 353.486 152.221 353.496 152.257C353.505 152.292 353.503 152.33 353.49 152.364C353.477 152.399 353.454 152.429 353.424 152.45C353.394 152.471 353.358 152.482 353.321 152.482L353.321 152.482Z" fill="#CCCCCC"/>
<path d="M367.231 153.69C367.232 151.922 367.937 150.226 369.19 148.976C370.444 147.726 372.143 147.024 373.915 147.024C375.687 147.024 377.386 147.726 378.639 148.976C379.893 150.226 380.597 151.922 380.599 153.69" fill="#F2F2F2"/>
<path d="M373.915 153.69C373.867 153.69 373.821 153.671 373.787 153.637C373.753 153.603 373.734 153.558 373.734 153.51V149.994C373.734 149.946 373.753 149.9 373.787 149.867C373.821 149.833 373.867 149.814 373.915 149.814C373.963 149.814 374.009 149.833 374.042 149.867C374.076 149.9 374.095 149.946 374.095 149.994V153.51C374.095 153.558 374.076 153.603 374.042 153.637C374.009 153.671 373.963 153.69 373.915 153.69Z" fill="#CCCCCC"/>
<path d="M373.915 152.482C373.871 152.482 373.83 152.467 373.797 152.438L371.629 150.582C371.611 150.566 371.596 150.547 371.585 150.526C371.574 150.505 371.567 150.482 371.566 150.458C371.564 150.434 371.566 150.411 371.574 150.388C371.581 150.365 371.593 150.344 371.608 150.326C371.624 150.308 371.643 150.293 371.664 150.283C371.686 150.272 371.709 150.265 371.733 150.264C371.757 150.262 371.78 150.265 371.803 150.273C371.826 150.28 371.847 150.292 371.865 150.308L374.032 152.165C374.06 152.189 374.08 152.221 374.09 152.257C374.099 152.292 374.097 152.33 374.084 152.364C374.071 152.399 374.048 152.429 374.018 152.45C373.988 152.471 373.952 152.482 373.915 152.482V152.482Z" fill="#CCCCCC"/>
</g>
<defs>
<clipPath id="clip0_1_467">
<rect width="408" height="175" fill="white" transform="translate(-9)"/>
</clipPath>
</defs>
</svg>
